# xmcd
#
# Track frame offsets:
#	150
#	14034
#	24314
#	34218
#	51628
#	71690
#	85011
#	99117
#	116449
#	138304
#	151285
#	169780
#	190392
#	206493
#	221254
#	235126
#
# Disc length: 3368 seconds
#
# Revision: 0
# Processed by: cddbd v1.5.2PL0 Copyright (c) Steve Scherf et al.
# Submitted via: audiograbber 1.83.01
#
DISCID=d60d2610
DTITLE=Various Artist - Summer of Love and Peace CD1
DYEAR=2007
DGENRE=
TTITLE0=Van Morrison - Brown Eyed Girl
TTITLE1=The Byrds - Mr. Tambourine Man
TTITLE2=Donovan - Universal Soldier
TTITLE3=Tim Hardin - Simple Song Of Freedom
TTITLE4=Matthews Southern Comfort - Woodstock
TTITLE5=Scott McKenzie - San Francisco
TTITLE6=The Tremeloes - Silence Is Golden 
TTITLE7=Albert Hammond - It Never Rains In Southern California 
TTITLE8=Simon and Garfunkel - Bridge Over Troubled Water 
TTITLE9=The Mash - Suicide Is Painless 
TTITLE10=Don McLean - American Pie
TTITLE11=Melanie - Ruby Tuesday
TTITLE12=The Flower Pot Men - Let's Go To San Francisco 
TTITLE13=Zager and Evans - In The Year 2525
TTITLE14=Small Faces - Lazy Sunday
TTITLE15=Bachman-Turner Overdrive - You Ain't Seen Nothing Yet 
EXTD=
EXTT0=
EXTT1=
EXTT2=
EXTT3=
EXTT4=
EXTT5=
EXTT6=
EXTT7=
EXTT8=
EXTT9=
EXTT10=
EXTT11=
EXTT12=
EXTT13=
EXTT14=
EXTT15=
PLAYORDER=
